<?xml version="1.0" standalone="no"?>
<!DOCTYPE svg PUBLIC "-//W3C//DTD SVG 20010904//EN"
 "http://www.w3.org/TR/2001/REC-SVG-20010904/DTD/svg10.dtd">
<svg version="1.0" xmlns="http://www.w3.org/2000/svg"
 width="272.000000pt" height="268.000000pt" viewBox="0 0 272.000000 268.000000"
 preserveAspectRatio="xMidYMid meet">

<g transform="translate(0.000000,268.000000) scale(0.100000,-0.100000)"
fill="#000000" stroke="none">
<path d="M1298 2491 c-66 -22 -105 -46 -175 -114 -50 -48 -52 -49 -74 -33 -13
9 -37 16 -54 16 l-30 -1 31 -13 c46 -20 52 -37 9 -25 -20 6 -48 6 -67 1 l-33
-8 -3 -98 c-2 -63 3 -128 14 -180 19 -94 33 -128 34 -79 0 40 34 133 61 167
23 29 76 59 124 70 l30 8 -26 -29 c-30 -31 -49 -65 -49 -85 0 -7 14 5 32 26
53 64 127 82 207 50 38 -15 43 -15 97 5 73 28 158 36 212 22 87 -24 152 -113
168 -231 l7 -55 19 70 c9 39 18 99 18 134 0 52 3 62 15 57 42 -16 -14 111 -79
177 -56 58 -172 126 -254 149 -83 23 -160 22 -234 -1z m258 -85 c56 -15 147
-61 166 -83 6 -7 -9 -2 -33 12 -112 64 -253 82 -369 46 -35 -11 -58 -15 -53
-10 19 19 128 48 183 48 30 1 78 -5 106 -13z m9 -56 c11 -4 -14 -5 -56 -2 -66
4 -127 -3 -194 -23 -11 -3 -4 2 15 11 69 32 170 38 235 14z m-588 -66 c-3 -3
-12 -4 -19 -1 -8 3 -5 6 6 6 11 1 17 -2 13 -5z m66 -1 c-7 -2 -21 -2 -30 0
-10 3 -4 5 12 5 17 0 24 -2 18 -5z"/>
<path d="M611 1823 c-23 -12 -40 -31 -54 -62 -18 -41 -18 -50 -7 -111 13 -66
41 -117 59 -105 6 3 21 -1 33 -8 13 -8 39 -18 58 -21 67 -12 94 -38 143 -137
51 -104 97 -236 97 -280 0 -20 22 -53 81 -123 73 -87 84 -96 115 -96 19 0 34
3 34 6 0 3 -13 23 -30 44 -30 38 -37 64 -22 88 6 9 24 -11 58 -63 43 -66 68
-89 64 -60 0 6 -86 142 -191 303 -105 161 -197 309 -205 329 -13 29 -13 44 -4
83 15 62 0 117 -43 167 -54 61 -121 78 -186 46z m117 -43 c101 -62 94 -220
-10 -220 -70 0 -129 63 -130 139 -1 85 68 125 140 81z m352 -699 c20 -38 -13
-71 -51 -51 -21 12 -25 40 -7 58 18 18 46 14 58 -7z"/>
<path d="M1040 1065 c-20 -24 -6 -28 15 -5 10 11 13 20 8 20 -6 0 -16 -7 -23
-15z"/>
<path d="M2024 1820 c-77 -39 -107 -105 -98 -219 l5 -76 -206 -318 c-114 -175
-204 -321 -201 -324 9 -10 33 15 78 84 l43 67 9 -32 c7 -27 4 -36 -23 -69 -17
-20 -31 -41 -31 -45 0 -5 15 -8 33 -8 29 0 41 10 110 92 53 63 79 103 83 127
21 123 119 350 168 389 15 11 45 24 69 27 23 4 52 14 64 22 12 8 26 12 31 9
13 -8 46 31 50 58 1 11 5 51 8 88 6 65 5 67 -28 103 -43 48 -102 57 -164 25z
m127 -49 c65 -66 11 -195 -88 -208 -32 -4 -45 -1 -69 20 -25 22 -29 32 -28 72
1 52 22 87 74 123 44 30 76 28 111 -7z m-401 -686 c14 -17 5 -51 -16 -59 -22
-8 -54 11 -54 32 0 38 46 56 70 27z"/>
<path d="M1715 1060 c10 -11 20 -18 23 -15 7 6 -18 35 -31 35 -5 0 -2 -9 8
-20z"/>
<path d="M1210 1655 c-75 -35 -140 -45 -169 -26 -12 8 -13 12 -1 26 7 9 20 13
29 10 13 -5 14 -4 3 7 -18 18 -46 -2 -50 -36 -3 -22 2 -29 34 -42 30 -13 63
-14 173 -10 75 3 154 5 176 5 22 -1 104 -2 181 -3 128 -1 144 1 163 18 25 23
24 54 -1 70 -13 8 -21 7 -29 -1 -8 -8 -6 -11 7 -10 13 1 19 -5 19 -18 0 -16
-8 -21 -42 -23 -32 -2 -63 6 -124 33 -68 31 -88 36 -127 31 -56 -7 -54 -7
-117 0 -42 4 -62 -1 -125 -31z"/>
<path d="M350 1599 c-35 -16 -50 -18 -68 -10 -32 15 -87 14 -101 -2 -15 -19
-4 -27 30 -20 42 8 77 -18 84 -64 12 -74 16 -83 47 -118 47 -54 76 -65 171
-65 l84 0 168 -126 168 -126 -7 38 c-19 105 -25 113 -100 151 -106 53 -182
108 -194 140 -6 15 -13 46 -16 67 -12 85 -95 156 -182 156 -21 0 -59 -10 -84
-21z m168 -48 c35 -25 65 -92 56 -127 -22 -87 -159 -82 -214 8 -29 48 -26 84
10 120 27 27 36 30 75 26 24 -3 57 -15 73 -27z"/>
<path d="M2248 1600 c-54 -29 -87 -78 -99 -148 -8 -43 -19 -68 -39 -89 -28
-28 -206 -133 -227 -133 -10 0 -27 -48 -38 -112 -4 -21 -4 -38 -1 -38 3 0 77
53 163 118 l156 117 97 5 c87 5 101 8 134 33 42 32 76 93 76 135 0 16 10 42
22 57 18 23 26 26 60 22 27 -4 38 -1 38 8 0 25 -60 33 -104 14 -20 -9 -32 -8
-68 10 -55 26 -121 27 -170 1z m149 -44 c54 -47 30 -139 -48 -178 -53 -27 -95
-23 -131 12 -26 27 -30 36 -24 68 15 98 135 156 203 98z"/>
<path d="M1056 1497 c-9 -69 8 -144 45 -203 24 -36 33 -44 40 -33 6 10 2 20
-17 35 -33 27 -42 86 -20 137 15 37 15 39 -11 78 -14 21 -27 39 -28 39 -2 0
-6 -24 -9 -53z"/>
<path d="M1667 1499 c-15 -28 -41 -58 -57 -67 -17 -10 -32 -29 -36 -44 -7 -34
-17 -35 -37 -5 -19 29 -32 16 -32 -33 0 -28 -2 -35 -8 -24 -5 9 -6 31 -3 50 6
27 4 34 -9 34 -9 0 -33 9 -55 20 l-39 20 -34 -20 c-22 -13 -34 -27 -32 -38 1
-9 0 -12 -2 -6 -2 7 -22 12 -45 12 -22 1 -63 12 -91 26 -28 14 -54 23 -58 21
-12 -8 -19 -80 -10 -110 5 -19 14 -31 27 -31 10 -1 25 -2 33 -3 11 -1 11 -4 1
-16 -7 -8 -9 -26 -5 -44 9 -44 92 -165 163 -241 l61 -65 1 33 c0 54 24 96 95
169 72 73 122 157 107 176 -20 26 -19 53 4 69 21 17 22 17 28 -8 5 -17 12 -24
21 -20 11 4 13 -1 8 -24 -8 -40 12 -39 34 3 20 36 25 170 8 199 -8 14 -14 9
-38 -33z m-217 -119 c-5 -10 -10 -30 -10 -44 0 -14 -5 -26 -11 -26 -7 0 -9 10
-5 28 4 15 9 36 11 47 2 11 4 21 4 23 1 2 6 0 11 -3 7 -4 7 -12 0 -25z m221
13 c13 -17 13 -17 -6 -3 -11 8 -22 16 -24 17 -2 2 0 3 6 3 6 0 17 -8 24 -17z
m-285 -49 c-4 -18 -12 -34 -18 -34 -6 0 -7 8 -3 18 3 9 9 30 12 47 4 16 8 24
11 17 2 -7 1 -29 -2 -48z m-120 2 c0 -19 -4 -32 -8 -30 -14 9 -8 64 7 64 0 0
1 -15 1 -34z m54 -22 c0 -8 -5 -12 -10 -9 -6 4 -8 11 -5 16 9 14 15 11 15 -7z"/>
<path d="M1546 1402 c-2 -4 -1 -14 5 -22 7 -12 9 -10 9 8 0 23 -5 28 -14 14z"/>
<path d="M1606 1363 c-4 -9 -2 -21 4 -27 7 -7 10 -2 10 17 0 31 -5 34 -14 10z"/>
<path d="M685 868 c-3 -7 -4 -101 -3 -208 3 -165 5 -195 18 -195 13 0 15 29
15 204 0 155 -3 205 -12 208 -7 3 -15 -1 -18 -9z"/>
<path d="M2050 670 c0 -180 2 -210 15 -210 13 0 15 30 15 210 0 180 -2 210
-15 210 -13 0 -15 -30 -15 -210z"/>
<path d="M801 813 c25 -27 101 -109 170 -183 68 -74 129 -138 134 -142 14 -11
157 -10 153 1 -1 5 -57 66 -123 137 -66 71 -142 152 -169 181 l-49 53 -81 0
-80 0 45 -47z"/>
<path d="M1221 758 c52 -55 130 -141 174 -189 l80 -87 85 -1 84 -1 -50 53
c-28 28 -108 114 -178 190 l-128 137 -80 0 -80 0 93 -102z"/>
<path d="M1676 670 l176 -190 81 0 81 0 -50 53 c-27 28 -108 114 -178 190
l-128 137 -80 0 -79 0 177 -190z"/>
<path d="M1935 788 c38 -40 75 -80 82 -88 11 -12 13 0 13 73 l0 87 -82 0 -81
0 68 -72z"/>
<path d="M637 812 c-26 -27 -27 -32 -27 -143 0 -115 0 -115 30 -144 l30 -29 0
172 c0 95 -1 172 -3 172 -2 0 -15 -13 -30 -28z m-3 -248 c3 -8 2 -12 -4 -9 -6
3 -10 10 -10 16 0 14 7 11 14 -7z"/>
<path d="M2100 675 l0 -169 30 29 c30 29 30 29 30 140 0 111 0 111 -30 140
l-30 29 0 -169z m42 -117 c-7 -7 -12 -8 -12 -2 0 14 12 26 19 19 2 -3 -1 -11
-7 -17z"/>
<path d="M435 790 c-85 -56 -85 -187 0 -240 36 -22 100 -26 140 -8 25 11 25
13 25 128 0 115 0 117 -25 128 -40 18 -106 14 -140 -8z m-25 -166 c0 -8 -4
-12 -10 -9 -5 3 -10 13 -10 21 0 8 5 12 10 9 6 -3 10 -13 10 -21z m52 -40 c21
-11 43 -14 70 -10 45 7 52 -9 8 -19 -40 -9 -84 2 -106 26 -21 23 -13 24 28 3z"/>
<path d="M2188 799 c-16 -9 -18 -26 -18 -128 0 -117 0 -118 25 -129 86 -39
186 17 202 111 7 46 -26 116 -66 140 -32 19 -115 23 -143 6z m188 -165 c-3 -9
-6 -18 -6 -20 0 -3 -4 -3 -10 1 -11 7 -2 35 12 35 6 0 7 -7 4 -16z m-36 -44
c0 -15 -55 -40 -88 -40 -15 0 -37 7 -48 15 -17 13 -15 14 27 9 32 -5 55 -2 75
9 35 20 34 19 34 7z"/>
<path d="M740 566 l0 -86 76 0 c42 0 74 4 72 9 -2 4 -36 43 -75 86 l-73 77 0
-86z"/>
<path d="M1166 345 c-79 -121 -99 -155 -92 -155 12 0 226 265 216 268 -6 2
-20 -4 -31 -14 -18 -16 -19 -16 -13 -1 15 41 -10 9 -80 -98z"/>
<path d="M1470 454 c0 -8 208 -251 223 -261 6 -4 3 6 -7 22 -11 17 -51 78 -89
138 -38 59 -73 107 -79 107 -5 0 -6 -6 -2 -12 6 -10 4 -10 -7 0 -13 12 -39 17
-39 6z"/>
</g>
</svg>
